<svg width="45" height="45" viewBox="0 0 45 45" fill="none" xmlns="http://www.w3.org/2000/svg">
<circle cx="22.5" cy="22.5" r="16.5" fill="white"/>
<path d="M22.0554 0.286377C9.92226 0.286377 0.0927734 10.1159 0.0927734 22.249C0.0927734 34.382 9.92226 44.2115 22.0554 44.2115C34.1884 44.2115 44.0179 34.382 44.0179 22.249C44.0179 10.1159 34.1884 0.286377 22.0554 0.286377ZM35.8382 19.7599L28.9956 26.212L31.0845 33.6989C31.5042 35.2118 30.7624 35.7878 29.4055 34.9776L22.0554 30.546L14.6955 34.9677C13.3484 35.7779 12.5578 35.202 12.9384 33.6695L14.959 25.5287L8.33116 19.6818C7.15008 18.6374 7.47216 17.7979 9.04374 17.7979H17.0967L20.923 8.89575C21.5477 7.45107 22.5434 7.45107 23.1486 8.90547L26.887 17.7979H35.0474C36.6287 17.8077 36.9802 18.6861 35.8382 19.7599Z" fill="#B00F0A"/>
</svg>
