<svg width="51" height="60" viewBox="0 0 51 60" fill="none" xmlns="http://www.w3.org/2000/svg">
<path d="M49.9813 15.8233C49.9102 14.259 49.9102 12.7658 49.9102 11.2726C49.9102 10.0638 48.9858 9.1394 47.777 9.1394C38.8888 9.1394 32.1338 6.57959 26.5164 1.10444C25.6631 0.322281 24.3832 0.322281 23.53 1.10444C17.9126 6.57959 11.1576 9.1394 2.26934 9.1394C1.06054 9.1394 0.136165 10.0638 0.136165 11.2726C0.136165 12.7658 0.136164 14.259 0.0650586 15.8233C-0.219364 30.7555 -0.646 51.234 24.3121 59.8378L25.0232 59.98L25.7342 59.8378C50.6213 51.234 50.2657 30.8267 49.9813 15.8233ZM23.3166 36.5151C22.89 36.8706 22.3923 37.084 21.8234 37.084H21.7523C21.1835 37.084 20.6146 36.7995 20.2591 36.3729L13.6463 29.049L16.846 26.2048L22.0367 31.9643L33.5559 21.0141L36.4712 24.1427L23.3166 36.5151Z" fill="#B00F0A"/>
</svg>
