<svg width="115" height="36" viewBox="0 0 115 36" fill="none" xmlns="http://www.w3.org/2000/svg">
<path d="M60.6087 9.04554C60.6087 10.343 59.5664 11.3877 58.273 11.3877C56.9795 11.3877 55.938 10.343 55.938 9.04554C55.938 7.74813 56.944 6.70343 58.273 6.70343C59.603 6.73943 60.6087 7.78449 60.6087 9.04554ZM50.9801 13.7665V14.3432C50.9801 14.3432 49.8668 12.9011 47.4956 12.9011C43.58 12.9011 40.5258 15.8922 40.5258 20.0361C40.5258 24.1444 43.5441 27.1712 47.4956 27.1712C49.9027 27.1712 50.9801 25.6938 50.9801 25.6938V26.3061C50.9801 26.5945 51.1962 26.8101 51.4833 26.8101H54.3929V13.2603H51.4833C51.1962 13.2614 50.9801 13.5141 50.9801 13.7665ZM50.9801 22.4506C50.4418 23.2437 49.3637 23.9284 48.0706 23.9284C45.7715 23.9284 44.0107 22.487 44.0107 20.0361C44.0107 17.5857 45.7715 16.1442 48.0706 16.1442C49.3281 16.1442 50.4777 16.8649 50.9801 17.6216V22.4506ZM56.5488 13.2614H59.9975V26.8112H56.5488V13.2614ZM108.067 12.9007C105.696 12.9007 104.582 14.3428 104.582 14.3428V6.73943H101.133V26.8112H104.043C104.331 26.8112 104.546 26.5588 104.546 26.3065V25.6941C104.546 25.6941 105.66 27.1715 108.03 27.1715C111.947 27.1715 115 24.1454 115 20.0372C115 15.929 111.947 12.9007 108.067 12.9007ZM107.492 23.892C106.162 23.892 105.121 23.208 104.582 22.4146V17.5856C105.121 16.8649 106.27 16.1082 107.492 16.1082C109.791 16.1082 111.551 17.5496 111.551 20.0001C111.551 22.4506 109.791 23.892 107.492 23.892ZM99.337 18.7754V26.8472H95.8876V19.1714C95.8876 16.9377 95.1691 16.0362 93.2303 16.0362C92.1888 16.0362 91.1107 16.577 90.427 17.37V26.8116H86.979V13.2618H89.7085C89.9959 13.2618 90.2116 13.5141 90.2116 13.7665V14.3432C91.2176 13.2978 92.5466 12.9011 93.8756 12.9011C95.3848 12.9011 96.6424 13.3341 97.6484 14.1988C98.8693 15.2079 99.337 16.505 99.337 18.7754ZM78.607 12.9007C76.2365 12.9007 75.1225 14.3428 75.1225 14.3428V6.73943H71.6739V26.8112H74.5834C74.8709 26.8112 75.0866 26.5588 75.0866 26.3065V25.6941C75.0866 25.6941 76.2006 27.1715 78.5711 27.1715C82.4874 27.1715 85.541 24.1454 85.541 20.0372C85.5768 15.9286 82.5233 12.9007 78.607 12.9007ZM78.0321 23.892C76.7031 23.892 75.6616 23.208 75.1225 22.4146V17.5856C75.6616 16.8649 76.8111 16.1082 78.0321 16.1082C80.3319 16.1082 82.0919 17.5496 82.0919 20.0001C82.0919 22.4506 80.3319 23.892 78.0321 23.892ZM68.6918 12.9007C69.7333 12.9007 70.2723 13.0814 70.2723 13.0814V16.2882C70.2723 16.2882 67.3983 15.3152 65.6024 17.3696V26.8468H62.153V13.2614H65.0633C65.3508 13.2614 65.5658 13.5138 65.5658 13.7661V14.3428C66.2132 13.5858 67.6143 12.9007 68.6918 12.9007ZM32.8741 25.5858C32.6946 25.1534 32.5149 24.6851 32.3354 24.2884C32.0476 23.64 31.7601 23.0269 31.5092 22.4506L31.4733 22.4146C28.9941 17.0089 26.3361 11.532 23.5334 6.12708L23.4258 5.91036C23.131 5.34966 22.8437 4.78503 22.564 4.2166C22.2044 3.56753 21.8455 2.88354 21.2706 2.23448C20.121 0.793064 18.4683 0 16.7083 0C14.9116 0 13.2951 0.793068 12.1101 2.16212C11.571 2.81047 11.1755 3.49518 10.8166 4.14425C10.5362 4.71232 10.249 5.27694 9.95488 5.83801L9.84686 6.05472C7.08047 11.4597 4.38622 16.9369 1.90731 22.3422L1.87107 22.4139C1.61984 22.9913 1.332 23.6036 1.04452 24.2516C0.865075 24.6483 0.685626 25.0807 0.506177 25.5491C0.0388917 26.8821 -0.105033 28.1435 0.0751335 29.4413C0.47028 32.1441 2.26621 34.4135 4.74547 35.4233C5.67968 35.82 6.64979 36 7.65542 36C7.9429 36 8.3018 35.964 8.58964 35.9276C9.77544 35.7836 10.9968 35.3876 12.1826 34.7029C13.6555 33.8739 15.0566 32.6852 16.6372 30.9554C18.2178 32.6852 19.6548 33.8739 21.0918 34.7029C22.278 35.3876 23.499 35.7836 24.6844 35.9276C24.9719 35.9644 25.3315 36 25.619 36C26.625 36 27.6306 35.82 28.5286 35.4233C31.0437 34.4135 32.8038 32.1081 33.1993 29.4413C33.4846 28.1802 33.341 26.9195 32.8741 25.5858ZM16.672 27.4595C14.7318 25.0091 13.4742 22.7029 13.0436 20.7575C12.8641 19.9285 12.8279 19.2078 12.9359 18.5591C13.0073 17.9824 13.2234 17.4776 13.5108 17.0453C14.1935 16.073 15.343 15.4599 16.6724 15.4599C18.0021 15.4599 19.1875 16.0366 19.8343 17.0453C20.1217 17.4776 20.3371 17.9827 20.4096 18.5591C20.5169 19.2081 20.481 19.9645 20.3016 20.7575C19.8691 22.6669 18.6115 24.9734 16.672 27.4595ZM31.0057 29.1533C30.7544 31.0271 29.4969 32.6492 27.7368 33.3699C26.8748 33.7299 25.9402 33.8382 25.0067 33.7299C24.1087 33.6215 23.2101 33.3332 22.2766 32.7932C20.9831 32.0718 19.69 30.9554 18.1808 29.2973C20.5517 26.3788 21.9887 23.7117 22.5278 21.3339C22.7794 20.2165 22.8156 19.2078 22.7072 18.2704C22.564 17.3697 22.2403 16.5406 21.7375 15.8199C20.6231 14.1978 18.7547 13.2614 16.6717 13.2614C14.5886 13.2614 12.7202 14.2345 11.6065 15.8199C11.1037 16.5406 10.78 17.3697 10.6364 18.2704C10.4929 19.2078 10.5284 20.2525 10.8159 21.3339C11.3546 23.7117 12.8275 26.4145 15.1625 29.3333C13.6896 30.9911 12.3602 32.1085 11.0667 32.8292C10.1325 33.3699 9.23493 33.6583 8.33697 33.7659C7.36723 33.8742 6.43266 33.7299 5.60648 33.4059C3.84644 32.6852 2.58886 31.0631 2.33763 29.1893C2.22996 28.2886 2.30138 27.3879 2.661 26.3788C2.76831 26.0181 2.94847 25.6581 3.12792 25.2258C3.37951 24.6491 3.66627 24.036 3.95411 23.4237L3.99036 23.352C6.46891 17.9824 9.12727 12.5051 11.8937 7.17214L12.0013 6.95543C12.2892 6.41544 12.5766 5.83873 12.8638 5.29802C13.1512 4.72131 13.4742 4.1806 13.8697 3.71189C14.6241 2.8479 15.6298 2.37883 16.7438 2.37883C17.8578 2.37883 18.8635 2.8479 19.6179 3.71189C20.0134 4.18168 20.3364 4.72239 20.6238 5.29802C20.9117 5.83873 21.1992 6.41544 21.4859 6.95543L21.5939 7.17214C24.3181 12.5272 26.9412 17.9335 29.4617 23.388V23.424C29.7495 24.0014 30.0008 24.6494 30.2882 25.2269C30.4677 25.6585 30.6475 26.0185 30.7552 26.3792C31.0419 27.3152 31.1496 28.2166 31.0057 29.1533Z" fill="#B00F0A"/>
</svg>
