<svg width="110" height="36" viewBox="0 0 110 36" fill="none" xmlns="http://www.w3.org/2000/svg">
<path d="M13.5474 0H14.5256C17.9216 0.0740187 21.2622 1.44336 23.6615 3.86748C22.7756 4.7742 21.8712 5.64392 21.0038 6.55065C19.6565 5.32934 18.0323 4.38561 16.2605 4.05252C13.6397 3.49738 10.8159 3.99701 8.61962 5.49589C6.2203 7.06878 4.59615 9.73345 4.24548 12.5832C3.8579 15.3959 4.65152 18.3566 6.47869 20.5402C8.23204 22.6682 10.9082 24.0006 13.6766 24.0931C16.2605 24.2411 18.9551 23.4454 20.8377 21.632C22.3142 20.3551 22.9971 18.4121 23.2185 16.5247C20.1548 16.5247 17.0911 16.5432 14.0273 16.5247V12.7127H26.9283C27.5927 16.8022 26.633 21.4099 23.5323 24.3336C21.4652 26.4062 18.6045 27.6275 15.6884 27.868C12.8646 28.1456 9.94847 27.609 7.43842 26.2396C4.43005 24.6297 2.03073 21.9095 0.849526 18.7082C-0.257851 15.766 -0.276307 12.4351 0.757245 9.47439C1.69852 6.77271 3.50723 4.38561 5.83272 2.72019C8.06593 1.07327 10.779 0.166542 13.5474 0Z" fill="#B00F0A"/>
<path d="M87.5572 0.962402H91.5068V27.3871C90.1964 27.3871 88.8676 27.4056 87.5572 27.3686C87.5756 18.5788 87.5572 9.77062 87.5572 0.962402Z" fill="#B00F0A"/>
<path d="M35.7135 10.1222C38.1498 9.65954 40.789 10.1777 42.8007 11.6395C44.6279 12.9349 45.9014 14.9704 46.289 17.1909C46.7873 19.7631 46.1598 22.5758 44.4987 24.6113C42.7085 26.8874 39.7739 28.1087 36.9132 27.9236C34.2924 27.7756 31.7454 26.4618 30.1951 24.3152C28.4417 21.9466 28.0172 18.6898 28.977 15.9141C29.9367 12.9349 32.6498 10.6588 35.7135 10.1222ZM36.2672 13.638C35.2706 13.8971 34.3478 14.4708 33.6833 15.285C31.8931 17.4315 32.0038 20.9289 33.9786 22.9274C35.1045 24.0747 36.8024 24.6113 38.3712 24.2967C39.8293 24.0377 41.1028 23.0569 41.8041 21.7616C43.0222 19.5595 42.6715 16.5248 40.8075 14.8038C39.6078 13.6936 37.8545 13.2309 36.2672 13.638Z" fill="#B00F0A"/>
<path d="M55.2771 10.1221C58.064 9.58542 61.1093 10.3626 63.1949 12.3241C66.5908 15.3774 66.9599 21.0953 64.0623 24.6112C62.309 26.8318 59.4667 28.0531 56.6613 27.9235C53.9852 27.8495 51.3459 26.5172 49.7587 24.3151C47.9684 21.891 47.5808 18.5602 48.5959 15.729C49.611 12.8422 52.2687 10.6402 55.2771 10.1221ZM55.8308 13.6379C54.8342 13.897 53.9114 14.4707 53.2469 15.2664C51.4751 17.3759 51.5489 20.8178 53.4499 22.8348C54.5758 24.0376 56.3291 24.6297 57.9533 24.2966C59.3929 24.0191 60.6848 23.0568 61.3861 21.7615C62.5858 19.5409 62.2351 16.5062 60.3526 14.7852C59.1529 13.675 57.3996 13.2308 55.8308 13.6379Z" fill="#B00F0A"/>
<path d="M71.8693 11.1954C73.9918 9.86308 76.8156 9.49298 79.1042 10.6403C79.824 10.9549 80.4146 11.4915 80.9867 12.0281C81.0052 11.5285 80.9867 11.0104 81.0052 10.4922C82.2418 10.5107 83.4783 10.4922 84.7334 10.5107V26.8319C84.7149 29.293 84.0874 31.9021 82.3156 33.6971C80.3777 35.6771 77.4062 36.2877 74.73 35.8806C71.8693 35.455 69.3777 33.364 68.2703 30.7178C69.3777 30.1812 70.5405 29.7556 71.6848 29.256C72.3307 30.7734 73.6411 32.0687 75.2837 32.3647C76.9263 32.6608 78.8273 32.2537 79.8978 30.8844C81.0421 29.478 81.0421 27.5535 80.9867 25.8326C80.1377 26.6653 79.1596 27.4055 77.9784 27.6831C75.4129 28.4048 72.5891 27.5165 70.6143 25.7771C68.621 24.0377 67.4398 21.3545 67.5506 18.6898C67.6059 15.6735 69.3039 12.7683 71.8693 11.1954ZM75.6898 13.564C74.5639 13.7491 73.5119 14.3782 72.7921 15.2479C71.0572 17.3205 71.0572 20.6328 72.8106 22.6683C73.8072 23.8711 75.4129 24.5373 76.9633 24.3707C78.4213 24.2227 79.7686 23.2975 80.4884 22.0206C81.7065 19.8556 81.5035 16.9134 79.8609 15.0259C78.8458 13.8601 77.2216 13.2864 75.6898 13.564Z" fill="#B00F0A"/>
<path d="M96.2501 12.139C98.4648 10.0665 101.879 9.36328 104.722 10.4551C107.416 11.4728 109.133 14.045 110 16.6911C105.995 18.3566 102.008 20.0035 98.0034 21.6689C98.5571 22.7237 99.4061 23.6859 100.55 24.0745C102.156 24.6481 104.076 24.4446 105.423 23.3713C105.958 22.9642 106.383 22.4276 106.789 21.9094C107.804 22.5941 108.819 23.2603 109.834 23.945C108.394 26.11 105.977 27.6274 103.374 27.8679C100.495 28.2195 97.4313 27.1093 95.5672 24.8517C92.5034 21.2988 92.7987 15.3403 96.2501 12.139ZM98.2249 15.5623C97.5974 16.4691 97.339 17.5794 97.3574 18.6711C100.034 17.5609 102.71 16.4506 105.386 15.3218C104.943 14.2855 103.873 13.6564 102.784 13.4898C101.03 13.1752 99.2031 14.119 98.2249 15.5623Z" fill="#B00F0A"/>
</svg>
