<svg width="85" height="21" viewBox="0 0 85 21" fill="none" xmlns="http://www.w3.org/2000/svg">
<g clip-path="url(#clip0_32_351)">
<path d="M28.4917 9.45621L30.0766 5.79458L28.6934 2.54682L28.6666 2.48387H28.7361H29.2924H29.3233L29.3353 2.51213L30.4717 5.22752L31.6082 2.51213L31.6201 2.48387H31.6511H32.2073H32.2769L32.25 2.54682L30.867 5.79443L32.4737 9.4567L35.4577 2.45737L35.4697 2.42927H35.5004H36.1235H36.1937L36.166 2.4927L32.7839 10.2462L32.7718 10.2738H32.7414H32.2185H32.1879L32.1758 10.2462L30.4827 6.35779L28.7788 10.2463L28.7667 10.2738H28.7361H28.2132H28.1828L28.1706 10.2462L24.7995 2.4927L24.772 2.42926H24.8422H25.4541H25.4849L25.4968 2.45721L28.4917 9.45621V9.45621ZM12.2474 1.98714C12.072 2.12702 11.9871 2.13248 12.0412 2.22547C12.0967 2.32086 12.114 2.36165 11.9755 2.3684C11.8369 2.3753 11.7397 2.35491 11.7848 2.42284C11.8298 2.49093 11.9061 2.57252 11.6669 2.60994C11.4278 2.64736 10.7796 2.87878 10.3879 2.90945C9.9962 2.93996 9.84012 3.09992 9.78825 3.22583C9.73622 3.35174 9.24734 3.5626 9.11906 3.37213C8.99095 3.18166 8.83486 2.88906 8.91111 2.7291C9.28137 1.95261 8.44988 2.53703 8.22851 2.22691C9.52876 1.85465 11.0806 1.65197 12.2474 1.98714L12.2474 1.98714ZM14.5552 2.67466C17.5629 3.89616 19.1518 6.89371 19.5916 8.58914C19.0631 8.99947 18.0444 9.88982 17.9338 9.29224C17.8231 8.69449 17.6303 9.31713 17.4363 8.82715C17.2421 8.33733 16.4379 7.90178 17.0202 8.63668C17.6027 9.37157 17.1851 9.04716 17.4623 9.42826C17.7396 9.80936 17.9893 10.0271 18.4328 9.89095C18.8766 9.75492 18.7935 10.1632 18.4052 10.5714C18.0169 10.9798 17.2406 11.7145 17.2682 12.64C17.2961 13.5656 17.5732 13.511 16.9633 14.001C16.3531 14.4909 16.8245 14.627 16.4086 15.0081C15.9927 15.3892 16.1036 15.8247 15.3549 16.1512C14.6062 16.4778 14.8557 16.4778 14.6339 15.7703C14.412 15.0625 13.8575 14.7087 13.913 13.8376C13.9684 12.9667 14.3289 12.3134 13.8852 11.8507C13.4416 11.388 13.913 10.517 13.2474 10.5714C12.5818 10.6258 11.75 11.1974 11.1122 10.1359C10.4745 9.07446 10.1138 8.20339 10.7794 7.79515C11.445 7.38691 11.4172 6.7609 11.6112 6.59757C11.8055 6.43425 12.3047 6.84248 13.4138 6.54313C14.5229 6.24362 13.8021 6.67916 14.5229 7.00581C15.244 7.33247 15.4659 7.06026 15.6323 6.95137C15.7985 6.84249 17.1297 6.65186 16.27 6.32536C15.2903 5.9531 14.9984 6.16733 14.8775 5.57425C14.7667 5.02998 13.4009 5.24839 13.8677 5.44545C14.3346 5.64234 14.7448 5.88982 14.5508 5.93061C14.3567 5.97141 14.1848 6.21021 14.0372 6.1585C13.8898 6.10663 14.4259 5.99871 14.1349 5.80808C13.8436 5.61761 13.6496 5.65856 13.5524 5.46793C13.4554 5.27746 13.4416 5.23651 13.4416 5.23651C13.4416 5.23651 13.1088 5.04604 12.6928 5.64491C12.2768 6.24362 11.6945 6.46139 11.5281 5.83538C11.3617 5.20937 13.0255 5.26381 12.3323 4.85557C11.6391 4.44734 12.9979 4.28385 13.3307 4.25671C13.6633 4.22957 14.523 3.33134 13.9406 3.46737C13.3583 3.60339 13.1088 3.68514 12.6096 3.35848C12.1183 3.03697 14.0449 3.16384 14.5552 2.67466L14.5552 2.67466ZM1.87975 8.95289C2.34638 6.77181 5.02263 3.23401 7.30407 2.66807C7.88638 2.66807 7.66681 3.48776 7.97179 4.00489C8.27677 4.52201 7.88851 4.82152 6.61297 5.01199C5.33742 5.20262 5.53163 6.04624 4.92152 6.31861C4.3114 6.59067 3.9786 7.32556 3.78456 6.99891C3.59051 6.67241 2.98039 6.72685 2.59213 7.7884C2.20387 8.84979 2.6507 8.67362 2.96566 8.5877C3.28062 8.50194 3.20209 8.94454 3.50707 9.43437C3.81204 9.92435 4.50561 9.66643 5.17104 9.47596C5.83662 9.28533 6.80719 9.77531 7.00123 10.2924C7.19544 10.8096 7.00123 11.218 8.33224 11.6806C9.66324 12.1433 9.24733 12.3067 9.05329 12.8782C8.85908 13.4499 8.77596 13.7764 8.3877 14.3209C7.99961 14.8651 8.58191 15.1918 7.99961 15.464C7.41714 15.7362 6.75171 16.2262 6.77937 16.7433C6.80718 17.2604 7.2509 18.1315 6.44657 17.5327C5.64241 16.9338 5.36524 15.8722 5.25431 14.348C5.14338 12.8238 4.72731 13.6131 4.145 12.9598C3.5627 12.3067 3.60442 11.4492 3.84002 11.0137C4.07579 10.5783 4.24219 10.0747 3.75691 10.0202C3.27163 9.96579 3.06367 9.84341 2.86946 9.35343C2.67541 8.86344 2.60604 9.1901 2.17622 9.122C2.02341 9.09792 1.93015 9.04781 1.87975 8.9529L1.87975 8.95289ZM24.8282 17.8134H60.2696V17.8158H60.2922V17.8063C60.533 17.7944 60.7403 17.7027 60.9154 17.5325C61.1032 17.3497 61.1971 17.1255 61.1971 16.8617C61.1971 16.6041 61.1048 16.3831 60.9169 16.2003C60.8166 16.1001 60.6124 15.9554 60.3048 15.7616C59.9419 15.5692 59.6909 15.4054 59.5515 15.2687C59.3329 15.054 59.2244 14.7966 59.2244 14.4959C59.2244 14.1908 59.3329 13.9316 59.5515 13.7154C59.7424 13.5253 59.9697 13.4188 60.2298 13.3958C60.2298 13.3872 61.5191 13.3912 61.6417 13.3912V13.798C61.197 13.798 60.746 13.7962 60.3669 13.7933C60.1775 13.792 59.9856 13.8808 59.8496 14.0127C59.7135 14.1447 59.6456 14.3053 59.6456 14.4959C59.6456 14.6821 59.7135 14.841 59.8496 14.9745C59.9289 15.0524 60.0973 15.1701 60.3532 15.3291C60.7581 15.5469 61.0464 15.7393 61.2166 15.9061C61.4854 16.1732 61.6199 16.4912 61.6199 16.8617C61.6199 17.2401 61.4854 17.5627 61.2166 17.8283C60.9478 18.0938 60.6222 18.2256 60.2383 18.2256C60.1938 18.2256 60.1503 18.2239 60.1073 18.2203H24.8281V17.8134L24.8282 17.8134ZM10.7734 0C13.7271 0 16.4015 1.17541 18.3374 3.0756C20.273 4.97564 21.4707 7.60076 21.4707 10.5002C21.4707 13.3996 20.273 16.0247 18.3374 17.9248C16.4015 19.8248 13.7271 21.0002 10.7734 21.0002C7.81962 21.0002 5.145 19.825 3.20928 17.9248C1.27338 16.0247 0.0760498 13.3995 0.0760498 10.5002C0.0760498 7.60091 1.27338 4.97562 3.20928 3.0756C5.14502 1.17541 7.81962 0 10.7734 0ZM17.8312 3.57249C16.0251 1.7995 13.5296 0.702938 10.7734 0.702938C8.01694 0.702938 5.52148 1.7995 3.71535 3.57249C1.9092 5.34517 0.792035 7.7946 0.792035 10.5002C0.792035 13.2058 1.9092 15.6552 3.71535 17.4279C5.52149 19.2009 8.01694 20.2974 10.7734 20.2974C13.5296 20.2974 16.0251 19.2007 17.8312 17.4279C19.6372 15.655 20.7545 13.2056 20.7545 10.5002C20.7545 7.7946 19.6372 5.34516 17.8312 3.57249ZM63.5668 13.5405V11.5929H63.9927V13.5405H64.9418V13.9601H63.9927V18.1143H63.5668V13.9601H62.6176V13.5405H63.5668ZM68.003 18.1795C67.4215 18.1795 66.9567 18.011 66.6133 17.6723C66.2684 17.3338 66.0902 16.9061 66.0806 16.3911V13.5405H66.5081V16.3544C66.5081 16.7423 66.6522 17.073 66.9405 17.3465C67.2255 17.6216 67.577 17.7598 67.9981 17.7598C68.3901 17.7598 68.7303 17.623 69.0153 17.3481C69.302 17.073 69.4461 16.7423 69.4461 16.3544V13.5405H69.8722V16.3911C69.8624 16.9061 69.6858 17.3338 69.3409 17.6723C68.9958 18.011 68.5505 18.1795 68.003 18.1795V18.1795ZM76.3265 18.1143H75.8989V17.1828C75.8163 17.2909 75.7273 17.3958 75.6285 17.4944C75.12 17.9951 74.5044 18.2447 73.7836 18.2447C73.0645 18.2447 72.4506 17.9951 71.9421 17.4944C71.4319 16.9951 71.1775 16.3925 71.1775 15.6883C71.1775 14.9792 71.4319 14.3751 71.9421 13.8759C72.4506 13.3766 73.0645 13.1256 73.7836 13.1256C74.5044 13.1256 75.12 13.3766 75.6285 13.8759C75.7273 13.9746 75.8163 14.0794 75.8989 14.1875V10.6613H76.3265V18.1143V18.1143ZM75.8989 16.1017V15.2733C75.8196 14.8631 75.6219 14.5039 75.3062 14.1923C74.885 13.779 74.378 13.5739 73.7836 13.5739C73.1875 13.5739 72.6806 13.779 72.2595 14.1923C71.8383 14.6057 71.6294 15.1032 71.6294 15.6883C71.6294 16.2717 71.8383 16.7693 72.2595 17.1812C72.6806 17.5914 73.1875 17.7981 73.7836 17.7981C74.378 17.7981 74.885 17.5914 75.3062 17.178C75.6219 16.8679 75.8196 16.5086 75.8989 16.1017V16.1017ZM78.2717 13.5405V18.1143H77.8442V13.5405H78.2717ZM78.058 11.9205C78.1745 11.9205 78.2749 11.9602 78.3592 12.0413C78.4435 12.1208 78.4855 12.2194 78.4855 12.3339C78.4855 12.4514 78.4435 12.5517 78.3592 12.6328C78.2749 12.7137 78.1745 12.7535 78.058 12.7535C77.9413 12.7535 77.8409 12.7137 77.7568 12.6328C77.6725 12.5517 77.6303 12.4514 77.6303 12.3339C77.6303 12.2194 77.6725 12.1208 77.7568 12.0413C77.8409 11.9602 77.9413 11.9205 78.058 11.9205ZM82.1104 13.1256C82.8311 13.1256 83.4467 13.3766 83.9535 13.8759C84.4622 14.3751 84.7148 14.9792 84.7148 15.6883C84.7148 16.3925 84.4622 16.9951 83.9535 17.4944C83.4466 17.9951 82.8311 18.2447 82.1104 18.2447C81.3928 18.2447 80.7789 17.9951 80.2688 17.4944C79.7602 16.9951 79.506 16.3925 79.506 15.6883C79.506 14.9792 79.7602 14.3751 80.2688 13.8759C80.7789 13.3766 81.3928 13.1256 82.1104 13.1256ZM82.1104 13.5739C81.516 13.5739 81.0073 13.7789 80.5878 14.1923C80.1668 14.6057 79.9563 15.1032 79.9563 15.6883C79.9563 16.2717 80.1668 16.7693 80.5878 17.1812C81.0073 17.5914 81.516 17.7981 82.1104 17.7981C82.7048 17.7981 83.2133 17.5914 83.6345 17.1812C84.054 16.7693 84.2646 16.2717 84.2646 15.6883C84.2646 15.1032 84.054 14.6057 83.6345 14.1923C83.2133 13.7789 82.7048 13.5739 82.1104 13.5739ZM39.6392 10.3375C39.9192 10.3357 40.1862 10.301 40.4421 10.232C40.698 10.1628 40.9352 10.0645 41.1522 9.9389C41.3691 9.81154 41.5583 9.66219 41.7196 9.48938C41.8809 9.31642 42.0071 9.12708 42.0979 8.91782L41.4414 8.74309C41.3488 8.94881 41.2134 9.12708 41.0318 9.28189C40.85 9.43478 40.6424 9.55491 40.4049 9.63858C40.1677 9.72418 39.9192 9.76786 39.6613 9.76963C39.3814 9.76786 39.1181 9.71502 38.8715 9.61128C38.623 9.50577 38.4023 9.35834 38.2096 9.16899C38.0167 8.97965 37.8591 8.75578 37.7405 8.49737C37.6217 8.24074 37.5494 7.95873 37.5253 7.65102H42.4761C42.4817 7.62565 42.4873 7.5855 42.491 7.52736C42.4966 7.47083 42.4984 7.4127 42.4984 7.35617C42.4948 6.96302 42.4223 6.59172 42.2832 6.24226C42.1442 5.89296 41.9477 5.58156 41.6937 5.31224C41.4396 5.04292 41.1374 4.82997 40.7888 4.67708C40.4383 4.52242 40.0527 4.44405 39.6281 4.44052C39.2053 4.44228 38.8177 4.5205 38.4655 4.67338C38.1132 4.82627 37.8053 5.03746 37.5458 5.30502C37.2861 5.57434 37.084 5.88558 36.9412 6.2368C36.7984 6.58819 36.7261 6.96495 36.7243 7.36709C36.7261 7.77484 36.7984 8.15514 36.9412 8.51375C37.0858 8.87044 37.2861 9.18537 37.5476 9.45839C37.809 9.7314 38.115 9.94612 38.471 10.1009C38.8251 10.2556 39.2145 10.3338 39.6392 10.3375H39.6392ZM37.5031 7.08315C37.5234 6.78107 37.5921 6.50436 37.7089 6.25318C37.8239 6.00201 37.9777 5.78552 38.1688 5.59987C38.3598 5.41599 38.5803 5.27402 38.8288 5.17204C39.0754 5.07199 39.3424 5.02108 39.6281 5.01931C39.9136 5.02108 40.1806 5.07022 40.4272 5.17027C40.6757 5.27033 40.8963 5.41229 41.0892 5.59618C41.2821 5.78006 41.4378 5.99847 41.5565 6.24965C41.6751 6.50082 41.7494 6.7793 41.7752 7.08315H37.5031L37.5031 7.08315ZM78.1019 10.3375C78.3819 10.3357 78.6489 10.301 78.9048 10.232C79.1607 10.1628 79.3981 10.0645 79.6149 9.9389C79.832 9.81154 80.0211 9.66219 80.1823 9.48938C80.3438 9.31642 80.4698 9.12708 80.5606 8.91782L79.9041 8.74309C79.8115 8.94881 79.6762 9.12708 79.4944 9.28189C79.3127 9.43478 79.105 9.55491 78.8676 9.63858C78.6304 9.72418 78.3819 9.76786 78.1242 9.76963C77.8441 9.76786 77.5808 9.71502 77.3342 9.61128C77.0857 9.50577 76.8652 9.35834 76.6722 9.16899C76.4795 8.97965 76.3218 8.75578 76.2032 8.49737C76.0844 8.24074 76.0122 7.95873 75.988 7.65102H80.9388C80.9444 7.62565 80.95 7.5855 80.9537 7.52736C80.9593 7.47083 80.9613 7.4127 80.9613 7.35617C80.9575 6.96302 80.8852 6.59172 80.7461 6.24226C80.607 5.89296 80.4104 5.58156 80.1564 5.31224C79.9023 5.04292 79.6001 4.82997 79.2515 4.67708C78.901 4.52242 78.5154 4.44405 78.0908 4.44052C77.668 4.44228 77.2804 4.5205 76.9281 4.67338C76.5759 4.82627 76.268 5.03746 76.0085 5.30502C75.7488 5.57434 75.5467 5.88558 75.4039 6.2368C75.2612 6.58819 75.1889 6.96495 75.187 7.36709C75.1889 7.77484 75.2612 8.15514 75.4039 8.51375C75.5485 8.87044 75.7488 9.18537 76.0103 9.45839C76.2717 9.7314 76.5777 9.94612 76.9337 10.1009C77.2879 10.2556 77.6773 10.3338 78.1019 10.3375H78.1019ZM75.9658 7.08315C75.9862 6.78107 76.0548 6.50436 76.1716 6.25318C76.2866 6.00201 76.4406 5.78552 76.6315 5.59987C76.8224 5.41599 77.0432 5.27402 77.2915 5.17204C77.5383 5.07199 77.8051 5.02108 78.0908 5.01931C78.3763 5.02108 78.6433 5.07022 78.8899 5.17027C79.1384 5.27033 79.3591 5.41229 79.5519 5.59618C79.7448 5.78006 79.9005 5.99847 80.0191 6.24965C80.1378 6.50082 80.2121 6.7793 80.2379 7.08315H75.9658L75.9658 7.08315ZM46.8453 10.3425C46.6959 10.3685 46.5413 10.382 46.3814 10.3828H46.3809C46.2253 10.382 46.073 10.3677 45.9246 10.3402C45.7754 10.3126 45.6295 10.2718 45.4874 10.2178H45.4873C45.3451 10.1632 45.2096 10.099 45.081 10.0245C44.9521 9.94981 44.83 9.86518 44.7142 9.76994C44.5993 9.67583 44.4936 9.57385 44.3974 9.46449C44.3359 9.39446 44.2783 9.32155 44.2248 9.24591V10.2283V10.2737H44.1784H43.6777H43.6312V10.2283V2.25638V2.21077H43.6777H44.234H44.2803V2.25638V5.63937C44.3466 5.55008 44.4154 5.46448 44.4871 5.38257V5.38241C44.5897 5.2655 44.6982 5.15613 44.813 5.05463H44.8132C44.9287 4.9533 45.0494 4.86304 45.1756 4.78419C45.3022 4.70533 45.4354 4.63708 45.5755 4.58055L45.5753 4.58039C45.7154 4.52289 45.8616 4.47969 46.0146 4.45063C46.1668 4.42172 46.326 4.40694 46.4922 4.40598H46.4927C46.6607 4.40694 46.8216 4.42172 46.9755 4.45014C47.1298 4.47873 47.2774 4.52097 47.4183 4.57669H47.4184C47.5578 4.6321 47.6902 4.69843 47.815 4.77552C47.9394 4.85228 48.0565 4.93997 48.1663 5.03841C48.2763 5.13606 48.3779 5.24141 48.4708 5.35431C48.5632 5.46641 48.6473 5.58637 48.7224 5.71356H48.7223C48.7987 5.84124 48.8654 5.97293 48.9229 6.10815C48.9805 6.24402 49.0289 6.38438 49.0683 6.52908C49.1472 6.81864 49.1868 7.11205 49.1868 7.41076L49.1865 7.41108C49.1856 7.57136 49.1737 7.72842 49.1505 7.88179C49.1274 8.03356 49.0932 8.18259 49.0474 8.32874C49.0011 8.47536 48.9451 8.61685 48.8797 8.75288C48.8149 8.88746 48.7403 9.01706 48.656 9.1412V9.14136C48.5726 9.2647 48.4803 9.38113 48.3797 9.49002C48.2792 9.59874 48.1709 9.69976 48.0551 9.7921L48.0549 9.79226C47.9379 9.88493 47.8152 9.96731 47.6869 10.0393H47.6868C47.5582 10.1114 47.4233 10.1734 47.282 10.2252C47.1411 10.2773 46.9955 10.3163 46.8453 10.3425V10.3425ZM46.0246 9.78199C46.1079 9.79435 46.1895 9.80046 46.27 9.80046V9.80078C46.4024 9.79981 46.5303 9.78825 46.6537 9.76593C46.7769 9.74376 46.8957 9.71068 47.0097 9.66716L47.01 9.667C47.1246 9.62412 47.2337 9.57273 47.3369 9.51299C47.4407 9.45308 47.5395 9.38419 47.6326 9.30726C47.725 9.22985 47.8116 9.1465 47.8916 9.05721C47.9714 8.96808 48.0449 8.873 48.1112 8.77134C48.1778 8.67017 48.2367 8.56546 48.2877 8.45722C48.3391 8.34865 48.3829 8.23624 48.4193 8.12028H48.4191C48.4548 8.00433 48.4818 7.88694 48.4996 7.76858C48.5174 7.65086 48.5264 7.53137 48.5264 7.41076H48.5268C48.5258 7.25274 48.512 7.09776 48.4855 6.946C48.459 6.79423 48.4198 6.64584 48.3679 6.50114C48.3162 6.3566 48.2532 6.21977 48.1791 6.09049C48.1053 5.96185 48.02 5.84076 47.9237 5.72738L47.9235 5.7269C47.8281 5.61287 47.7237 5.51138 47.6104 5.42176C47.4973 5.33263 47.3746 5.25506 47.2427 5.18906C47.1115 5.12321 46.9727 5.07343 46.8273 5.04002C46.6815 5.00646 46.5289 4.98895 46.3702 4.98815C46.2486 4.98895 46.1313 4.99923 46.0177 5.0193C45.9045 5.03922 45.795 5.06909 45.6894 5.10892L45.6892 5.10908C45.5832 5.14826 45.4819 5.19484 45.3854 5.24848C45.288 5.30276 45.1949 5.36443 45.1064 5.43332L45.1062 5.43349C45.0167 5.5027 44.9321 5.57658 44.853 5.65511C44.7739 5.73332 44.699 5.81715 44.6285 5.90629V5.90613C44.5601 5.99365 44.4966 6.08439 44.438 6.17786C44.3803 6.2702 44.3277 6.36431 44.2803 6.45987V8.32586C44.2903 8.40615 44.3084 8.48437 44.3351 8.56049C44.3621 8.63742 44.3978 8.71242 44.4424 8.78517L44.4426 8.78549C44.4866 8.85856 44.5375 8.92938 44.5949 8.99731C44.6529 9.06573 44.7167 9.13077 44.7859 9.19164L44.7862 9.1918C44.8562 9.25427 44.93 9.31241 45.0071 9.36604C45.0843 9.41969 45.1651 9.46931 45.2497 9.51476C45.3355 9.56005 45.4223 9.60084 45.5097 9.63649C45.5956 9.67134 45.6817 9.70153 45.7674 9.72594V9.72611C45.8544 9.75068 45.94 9.76931 46.0246 9.78199L46.0246 9.78199ZM58.9785 6.22315C59.0079 6.4504 59.0225 6.69724 59.0215 6.96302H59.0217V10.2283V10.2737H58.9752H58.4191H58.3726V10.2283V7.0613C58.3726 6.70751 58.3446 6.39932 58.2884 6.13739C58.2326 5.8777 58.149 5.66346 58.0372 5.49532C57.9269 5.32942 57.789 5.20496 57.6236 5.12241C57.4574 5.03938 57.2627 4.99827 57.0396 4.99907C56.8818 4.99987 56.7299 5.01898 56.5846 5.05592C56.4395 5.09302 56.3006 5.1481 56.1684 5.22086C56.0357 5.29393 55.9123 5.38129 55.7985 5.48231C55.6844 5.58365 55.5791 5.69976 55.4824 5.83032L55.4822 5.83065C55.3857 5.96009 55.3014 6.10029 55.2291 6.25061C55.1577 6.39948 55.0979 6.55879 55.0499 6.72855V10.2283V10.2737H55.0035H54.4472H54.4009V10.2283V7.06131H54.401C54.4018 6.70253 54.3744 6.39161 54.3187 6.12823C54.2636 5.86758 54.1808 5.65431 54.071 5.48809L54.0709 5.48793C53.9622 5.323 53.8259 5.19982 53.6618 5.11872C53.4966 5.03713 53.3024 4.99731 53.0792 4.99907H53.079C52.9252 4.99988 52.7762 5.01867 52.6322 5.0548C52.488 5.09093 52.3493 5.14474 52.2166 5.21556C52.0831 5.28783 51.9587 5.37375 51.8436 5.47348V5.47364C51.7279 5.57385 51.621 5.68804 51.523 5.81619H51.5232C51.4245 5.94612 51.3377 6.08696 51.2632 6.23857C51.1898 6.3876 51.1279 6.54755 51.078 6.71811V10.2283V10.2737H51.0317H50.4754H50.4289V10.2283V4.54973V4.50413H50.4754H50.9872H51.0337V4.54973V5.729C51.0926 5.63104 51.1551 5.53821 51.2212 5.45037C51.3207 5.31836 51.4285 5.19726 51.5446 5.08693V5.08677C51.6606 4.97644 51.7832 4.8796 51.9115 4.79577C52.0396 4.71194 52.1744 4.64095 52.3154 4.5825C52.4566 4.52388 52.6024 4.47955 52.7523 4.45016V4.45C52.9015 4.42061 53.0548 4.40584 53.2122 4.40584L53.2125 4.406C53.3786 4.40696 53.5337 4.42415 53.6782 4.45739C53.8236 4.4908 53.9591 4.54042 54.0849 4.60594L54.0853 4.6061C54.2103 4.67259 54.3228 4.75177 54.4236 4.84411C54.5241 4.93613 54.6129 5.04148 54.6901 5.16049H54.6903C54.7661 5.2774 54.8281 5.40492 54.8768 5.54239C54.9118 5.64132 54.9398 5.74538 54.9609 5.85459C55.0835 5.64437 55.2152 5.45711 55.356 5.29266C55.5231 5.09785 55.7028 4.93485 55.8948 4.80348C56.0882 4.67147 56.2947 4.5719 56.5141 4.50541C56.7324 4.43924 56.9632 4.40584 57.2064 4.40584L57.2065 4.406C57.4215 4.40696 57.6162 4.43298 57.7905 4.48389C57.9664 4.53528 58.1218 4.61205 58.2563 4.71403C58.3911 4.81617 58.5074 4.94111 58.6053 5.08822C58.7026 5.23468 58.782 5.40315 58.8433 5.59346V5.59378C58.9036 5.78393 58.9487 5.99367 58.9785 6.22316V6.22315ZM62.5317 10.3515C62.3766 10.3723 62.2184 10.3831 62.0571 10.3831L62.0569 10.3828C61.9193 10.382 61.7861 10.3699 61.658 10.3471C61.5289 10.324 61.4047 10.29 61.2859 10.2452H61.2855C61.1675 10.1997 61.0564 10.1451 60.9525 10.0813C60.8484 10.0173 60.7524 9.94451 60.6644 9.86277C60.5747 9.78119 60.4957 9.69237 60.4268 9.59714C60.3576 9.50126 60.298 9.39864 60.2478 9.2896V9.28928C60.1982 9.17991 60.1611 9.06572 60.1362 8.94704C60.1112 8.82772 60.0981 8.70325 60.0973 8.57397V8.57365C60.0981 8.44694 60.114 8.32569 60.1446 8.20974C60.1752 8.09379 60.2208 7.98281 60.281 7.8765L60.2812 7.87602C60.3422 7.77131 60.4154 7.67334 60.5008 7.58245C60.5858 7.49187 60.6834 7.4082 60.7936 7.33175C60.9034 7.25563 61.0237 7.1877 61.1537 7.1286C61.2835 7.0695 61.4231 7.01907 61.5716 6.97747C61.7207 6.9362 61.8779 6.90521 62.043 6.88433C62.2069 6.86377 62.3786 6.85317 62.5576 6.85221L62.5577 6.85205C62.6623 6.85205 62.7686 6.85526 62.876 6.86168C62.9833 6.86827 63.09 6.8779 63.1957 6.89059C63.3027 6.90328 63.4082 6.91854 63.5124 6.9362C63.6163 6.95387 63.7189 6.9741 63.8197 6.99707H63.8199C63.9184 7.01955 64.0137 7.0446 64.1055 7.07158C64.1767 7.09246 64.2461 7.11479 64.3136 7.13839V6.64632H64.3138C64.313 6.47111 64.2948 6.30714 64.2597 6.15489C64.2246 6.00345 64.1726 5.86341 64.1041 5.73573C64.0355 5.60806 63.9524 5.49484 63.8552 5.39639C63.7583 5.29843 63.6471 5.21476 63.5218 5.14634L63.5216 5.14602C63.3958 5.07632 63.2582 5.02381 63.109 4.98831C62.9592 4.95266 62.7976 4.93451 62.6245 4.93355V4.93371C62.4816 4.93371 62.3362 4.948 62.1881 4.97659C62.0392 5.00518 61.8872 5.04822 61.7321 5.10555H61.732C61.5775 5.16192 61.4214 5.23194 61.2645 5.31497C61.1081 5.39768 60.9507 5.49355 60.7931 5.60244L60.7521 5.63071L60.7267 5.58815L60.5042 5.21685L60.4821 5.18007L60.5183 5.1563C60.7066 5.032 60.8918 4.92327 61.0736 4.83029C61.2563 4.73682 61.4368 4.65845 61.615 4.59597C61.7917 4.5327 61.9671 4.48532 62.1407 4.45368C62.3157 4.42173 62.4882 4.40583 62.6579 4.40583L62.658 4.40599C62.8946 4.40695 63.1152 4.43056 63.319 4.47681C63.5234 4.52322 63.7117 4.59244 63.8832 4.68446V4.6843C64.0556 4.77536 64.2084 4.88682 64.3415 5.01802C64.4745 5.14923 64.5877 5.30035 64.6808 5.47107C64.7737 5.64211 64.8438 5.82936 64.8909 6.03284C64.9377 6.23519 64.9616 6.45441 64.9625 6.68984L64.9627 6.69V9.45469C64.9627 9.49693 64.9671 9.53323 64.976 9.56326C64.984 9.5912 64.9956 9.61385 65.0105 9.63055L65.011 9.63119C65.0252 9.64789 65.0434 9.66042 65.0651 9.66877C65.0884 9.67776 65.1168 9.68226 65.15 9.68226H65.1964V9.72771V10.2174V10.2567L65.1566 10.2623C65.1374 10.2649 65.1183 10.2673 65.0983 10.2691C65.0779 10.271 65.0592 10.272 65.0424 10.272C65.0069 10.2737 64.9764 10.2737 64.9498 10.2737C64.9007 10.2737 64.8529 10.2678 64.8063 10.2566C64.7598 10.2452 64.7148 10.2285 64.6713 10.2073L64.671 10.2068C64.6275 10.1849 64.5875 10.1586 64.5519 10.1282C64.5164 10.0979 64.4846 10.0632 64.4573 10.0247H64.4575C64.4287 9.98434 64.4071 9.94162 64.3925 9.89585C64.3781 9.85024 64.3704 9.80126 64.3694 9.74859L64.3693 9.74778V9.40539C64.3006 9.48376 64.2279 9.5578 64.1512 9.62718C64.0442 9.72386 63.9287 9.81218 63.8048 9.89136C63.6806 9.97166 63.5504 10.0423 63.4144 10.1032C63.2775 10.1645 63.1351 10.2161 62.9875 10.2575C62.84 10.299 62.688 10.3304 62.5317 10.3515V10.3515ZM61.7797 9.80913C61.9021 9.83884 62.0315 9.85442 62.1683 9.85522V9.85506C62.3103 9.85506 62.4484 9.84623 62.5821 9.82872C62.7171 9.81106 62.8491 9.78456 62.9774 9.74955C63.1047 9.7147 63.2256 9.67262 63.3395 9.62316C63.4527 9.57385 63.5591 9.51716 63.6577 9.45325L63.6582 9.45292C63.7572 9.39013 63.8462 9.32091 63.9249 9.24608C64.0042 9.17059 64.0736 9.08885 64.1324 9.00197L64.1333 9.00036L64.1351 8.99811C64.1644 8.96326 64.1908 8.92841 64.2133 8.89324C64.2353 8.85888 64.2541 8.82386 64.2688 8.78789C64.2839 8.7516 64.2952 8.71707 64.3027 8.68431C64.3099 8.65235 64.3136 8.62103 64.3136 8.59019V7.61746C64.1872 7.57265 64.0591 7.53282 63.93 7.49813C63.7906 7.46071 63.6485 7.42875 63.5047 7.40274V7.4029C63.3576 7.3772 63.2102 7.35745 63.063 7.34444C62.9193 7.33191 62.773 7.32533 62.6245 7.32533V7.32517C62.4332 7.32597 62.2539 7.33946 62.0868 7.3658C61.9204 7.39182 61.7663 7.43068 61.6245 7.48239C61.4833 7.53395 61.3579 7.59561 61.2486 7.6674C61.1402 7.73855 61.0471 7.81981 60.9692 7.91119C60.8918 8.00273 60.8336 8.10118 60.7948 8.20669C60.7557 8.31236 60.7357 8.42558 60.7349 8.54651C60.7357 8.67017 60.7524 8.78789 60.7843 8.89919C60.8162 9.01064 60.8637 9.11567 60.9263 9.21412V9.21428C60.9896 9.31256 61.0638 9.40122 61.1493 9.47927C61.2336 9.55619 61.3288 9.62284 61.4355 9.67857H61.4357C61.5435 9.7359 61.6582 9.77974 61.7797 9.80913L61.7797 9.80913ZM69.1062 10.3288C68.9075 10.3638 68.6936 10.382 68.4655 10.3828L68.4654 10.3831C68.3148 10.3831 68.166 10.3748 68.0189 10.3581C67.8718 10.3415 67.7266 10.3166 67.5833 10.2835H67.5832C67.4411 10.2505 67.3026 10.2093 67.1672 10.16C67.0324 10.1107 66.9015 10.0536 66.7749 9.9882C66.6481 9.92267 66.5274 9.84896 66.413 9.76737C66.2981 9.68547 66.1888 9.59489 66.0856 9.49645L66.0566 9.46882L66.0805 9.43702L66.3587 9.06572L66.3889 9.02525L66.4271 9.05882C66.5795 9.19324 66.7351 9.30999 66.8937 9.4094C67.0537 9.50977 67.2176 9.59329 67.385 9.66009V9.66025C67.5517 9.72546 67.7248 9.77428 67.9047 9.80656C68.0841 9.839 68.271 9.85506 68.4654 9.85506C68.6309 9.85506 68.7859 9.8435 68.9294 9.82069C69.0735 9.79773 69.2072 9.76336 69.3297 9.71791C69.4516 9.67278 69.5603 9.61754 69.655 9.55217C69.7488 9.48761 69.8291 9.41293 69.8955 9.32878L69.8959 9.3283C69.9624 9.24575 70.0127 9.15373 70.0465 9.05287C70.0807 8.95089 70.0982 8.84008 70.0991 8.72124H70.0989C70.0989 8.63661 70.0897 8.5592 70.0711 8.4895C70.0528 8.42044 70.0249 8.35781 69.9878 8.30192L69.9875 8.3016C69.951 8.24507 69.9048 8.19271 69.8499 8.14454C69.7939 8.09571 69.7286 8.05123 69.654 8.01124L69.6537 8.01108C69.5786 7.97013 69.4935 7.93126 69.3993 7.89465C69.3052 7.85787 69.2006 7.8227 69.0863 7.78929C68.9704 7.75557 68.8467 7.722 68.7146 7.68844C68.5833 7.65503 68.4413 7.62099 68.2882 7.58614C68.1229 7.54856 67.9693 7.51114 67.8274 7.47388C67.6851 7.43662 67.5532 7.39904 67.4318 7.36146H67.4316C67.3107 7.32404 67.1992 7.28325 67.0974 7.23876C66.9953 7.19444 66.9046 7.1469 66.8255 7.09615C66.7436 7.04508 66.6721 6.98711 66.611 6.92271C66.5494 6.85783 66.4986 6.78636 66.4585 6.70863H66.4586C66.4179 6.63042 66.3876 6.54322 66.3678 6.44686C66.3482 6.35114 66.3385 6.24659 66.3385 6.13321L66.3387 6.13289C66.3395 5.98835 66.3547 5.85281 66.3834 5.72658C66.4127 5.59794 66.4558 5.47894 66.5123 5.36989L66.5125 5.36973C66.5696 5.26149 66.6378 5.16208 66.7167 5.07214V5.07198C66.7957 4.98189 66.8858 4.90095 66.9863 4.82948C67.0856 4.75817 67.1933 4.6957 67.3088 4.64254C67.4248 4.58923 67.5481 4.54538 67.6784 4.51117V4.51133C67.8068 4.47633 67.941 4.44999 68.0799 4.43232C68.2196 4.41466 68.3633 4.40582 68.5099 4.40582L68.51 4.40598C68.6638 4.40695 68.8109 4.41562 68.9513 4.43248C69.0925 4.44967 69.2286 4.47504 69.3598 4.50941C69.4907 4.54362 69.6143 4.58441 69.7304 4.63162C69.8468 4.67916 69.9561 4.73344 70.0582 4.79479V4.79495C70.1596 4.85533 70.252 4.92102 70.3355 4.99168C70.4191 5.0625 70.4939 5.13879 70.5598 5.22053L70.5858 5.25281L70.5557 5.2814L70.2442 5.5761L70.209 5.6095L70.1771 5.57304C70.1148 5.50222 70.0464 5.43718 69.9714 5.3784V5.37856C69.896 5.3193 69.8139 5.26614 69.7249 5.21941H69.7247C69.6354 5.17203 69.5423 5.13044 69.4453 5.09495C69.3479 5.05945 69.246 5.02942 69.1393 5.00533C69.0325 4.98108 68.9238 4.96326 68.8137 4.95137C68.7039 4.93965 68.5914 4.93371 68.4765 4.93371C68.3693 4.93371 68.2659 4.93917 68.1668 4.95025C68.0688 4.96101 67.974 4.97755 67.8831 4.99971C67.7923 5.02171 67.7065 5.04966 67.6262 5.08354C67.5462 5.11727 67.4717 5.15694 67.4029 5.20255C67.3346 5.24783 67.2741 5.29923 67.2212 5.35656C67.1679 5.41453 67.1214 5.47926 67.0822 5.55008H67.0823C67.0444 5.62026 67.0156 5.69751 66.9961 5.78134C66.9765 5.86646 66.966 5.95832 66.9652 6.0566H66.9653C66.9653 6.13497 66.9719 6.20628 66.9853 6.26988C66.9986 6.33251 67.0184 6.38856 67.0449 6.43722C67.0723 6.487 67.107 6.53294 67.1488 6.57437C67.191 6.61613 67.2407 6.65387 67.2985 6.68743C67.358 6.7218 67.4256 6.75456 67.5017 6.78539H67.5018C67.5786 6.81671 67.6643 6.84626 67.7592 6.87388C67.8556 6.90231 67.9598 6.93106 68.072 6.9598C68.1831 6.98839 68.3067 7.01842 68.4425 7.04974V7.0499C68.6228 7.09021 68.7931 7.13132 68.9533 7.1726C69.1169 7.21467 69.2704 7.25739 69.4134 7.30011H69.4137C69.555 7.34315 69.6854 7.38972 69.8049 7.43951C69.9242 7.48913 70.0331 7.54245 70.1316 7.59914L70.1321 7.59946C70.3296 7.71606 70.4796 7.85979 70.5821 8.03035L70.5822 8.03051C70.6336 8.11723 70.6725 8.21391 70.6984 8.32006C70.7239 8.42558 70.7368 8.54105 70.7368 8.66663L70.7367 8.66679C70.7359 8.84153 70.7115 9.00485 70.6639 9.15646C70.6161 9.30838 70.5448 9.4489 70.45 9.57754C70.3566 9.70586 70.2435 9.81956 70.1115 9.91865C69.9795 10.0177 69.8284 10.1022 69.6588 10.1719C69.4902 10.2413 69.3059 10.2936 69.1062 10.3288V10.3288ZM72.643 4.9464V2.76244V2.71683H72.6894H73.177H73.2235V2.76244V4.9464H74.2636H74.31V4.99201V5.47252V5.51797H74.2636H73.2235V10.2283V10.2737H73.177H72.6894H72.643V10.2283V5.51797H71.6027H71.5564V5.47252V4.99201V4.9464H71.6027H72.643ZM84.8005 4.49063C84.8223 4.48854 84.847 4.48565 84.8717 4.4826L84.9237 4.47617V4.52773V5.041V5.08484L84.8791 5.08644C84.7069 5.09271 84.5419 5.11375 84.3843 5.14956C84.2272 5.18537 84.0777 5.2358 83.9365 5.30052L83.9363 5.30084C83.7938 5.36572 83.6618 5.44426 83.5399 5.53564C83.4178 5.62702 83.3056 5.73189 83.203 5.84944H83.2032C83.1014 5.96716 83.0119 6.09612 82.9348 6.23632C82.8587 6.37492 82.7948 6.52476 82.7432 6.68583V10.2283V10.2737H82.6968H82.1405H82.0942V10.2283V4.54973V4.50413H82.1405H82.6634H82.7099V4.54973V5.77381C82.7542 5.69785 82.801 5.62478 82.8504 5.55476C82.9342 5.43591 83.0251 5.32526 83.1228 5.22296L83.1232 5.2228C83.222 5.12098 83.3259 5.0288 83.4348 4.94673C83.5433 4.86499 83.6572 4.79304 83.7765 4.73169C83.8951 4.66922 84.0162 4.61944 84.139 4.58186C84.2624 4.54412 84.3882 4.51842 84.5163 4.50445L84.5196 4.50413H84.5214C84.5599 4.50413 84.5947 4.50364 84.624 4.50268C84.6562 4.50156 84.687 4.49979 84.7156 4.49722L84.7171 4.49706C84.748 4.49513 84.7758 4.49288 84.8005 4.49064V4.49063Z" fill="white"/>
</g>
<defs>
<clipPath id="clip0_32_351">
<rect width="85" height="21" fill="white"/>
</clipPath>
</defs>
</svg>
