<svg width="127" height="86" viewBox="0 0 127 86" fill="none" xmlns="http://www.w3.org/2000/svg">
<path d="M95.3964 75.6988H103.66V78.9048H92.098H90.5523V75.6988L98.4391 67.3437H90.9661V64.1377H102.346H103.247V67.3437L95.3964 75.6988Z" fill="white"/>
<path d="M33.9935 68.4488C33.9935 67.4409 34.2126 66.6515 34.6386 66.0807C35.0646 65.51 35.5392 65.0728 36.0383 64.7813C36.6468 64.4292 37.3284 64.2227 38.083 64.1377H42.1724V67.6595H39.4218C39.0323 67.6595 38.7159 67.7323 38.4725 67.8659C38.229 67.9995 38.0343 68.1452 37.9004 68.3031C37.7422 68.4974 37.6327 68.716 37.584 68.9467V78.9048H33.9935V68.4488Z" fill="white"/>
<path d="M119.105 69.639C119.142 69.9305 119.178 70.2341 119.203 70.5377C119.227 70.8534 119.252 71.1813 119.252 71.5335V72.0557H109.028C109.064 72.3836 109.113 72.7236 109.174 73.0636C109.235 73.4037 109.332 73.7437 109.466 74.0716C109.685 74.5817 110.014 75.0188 110.464 75.4074C110.914 75.7961 111.535 75.9904 112.338 75.9904C113.142 75.9904 113.762 75.7961 114.213 75.4074C114.663 75.0188 114.992 74.5695 115.211 74.0716H119.008C118.85 74.7517 118.631 75.3467 118.351 75.8446C118.071 76.3547 117.754 76.7919 117.414 77.1562C117.073 77.5205 116.708 77.8363 116.318 78.0791C115.929 78.322 115.552 78.5163 115.174 78.6742C114.274 79.0264 113.336 79.1964 112.338 79.1964C111.036 79.1721 109.88 78.9049 108.87 78.3827C108.444 78.152 108.018 77.8484 107.604 77.4962C107.19 77.1319 106.813 76.6826 106.496 76.1482C106.18 75.6017 105.912 74.9581 105.717 74.193C105.523 73.4401 105.425 72.5536 105.425 71.5456C105.425 70.5377 105.523 69.6512 105.717 68.8982C105.912 68.1453 106.168 67.4895 106.496 66.9309C106.813 66.3723 107.19 65.9108 107.604 65.5465C108.018 65.1821 108.444 64.8785 108.87 64.6478C109.88 64.1013 111.036 63.8099 112.338 63.7734C113.409 63.8099 114.407 64.0406 115.345 64.4414C115.734 64.6114 116.124 64.8421 116.525 65.1214C116.927 65.4007 117.292 65.7529 117.633 66.1658C117.974 66.5787 118.278 67.0766 118.533 67.6474C118.801 68.2182 118.984 68.8861 119.105 69.639ZM115.43 69.639C115.332 69.3233 115.211 69.0197 115.065 68.7039C114.919 68.3882 114.724 68.1089 114.468 67.8538C114.213 67.5988 113.908 67.4045 113.568 67.2588C113.215 67.113 112.813 67.0402 112.338 67.0402C111.876 67.0402 111.462 67.113 111.109 67.2588C110.756 67.4045 110.452 67.5988 110.208 67.8538C109.953 68.1089 109.746 68.3882 109.6 68.7039C109.442 69.0197 109.332 69.3233 109.247 69.639H115.43Z" fill="white"/>
<path d="M73.1721 78.9049H69.7033V76.8647L70.3484 76.0147C70.0198 76.8283 69.5938 77.4476 69.0948 77.8848C68.5836 78.3099 68.0968 78.6256 67.6099 78.8199C67.0501 79.0385 66.4659 79.16 65.8573 79.1964C64.6524 79.1721 63.5813 78.9049 62.6442 78.3827C62.2304 78.152 61.8409 77.8484 61.4636 77.4962C61.0863 77.1319 60.7455 76.6826 60.4412 76.1482C60.1369 75.6017 59.8935 74.9581 59.711 74.193C59.5284 73.4401 59.431 72.5536 59.431 71.5456C59.431 70.5377 59.5284 69.6512 59.7231 68.8982C59.9179 68.1453 60.1735 67.4895 60.5021 66.9309C60.8185 66.3723 61.1958 65.9108 61.6096 65.5465C62.0234 65.1821 62.4494 64.8785 62.8754 64.6478C63.8856 64.1013 65.0419 63.8099 66.3442 63.7734C67.5734 63.7734 68.608 63.9556 69.4721 64.3078C70.3241 64.6721 71.03 65.1821 71.5898 65.8501C72.1497 66.518 72.5514 67.3316 72.8069 68.3032C73.0625 69.2626 73.1842 70.3555 73.1842 71.5821V78.9049H73.1721ZM66.3442 67.1859C65.6261 67.1859 65.0419 67.3316 64.6037 67.6231C64.1655 67.9146 63.8248 68.2789 63.5935 68.7161C63.3623 69.1533 63.204 69.6269 63.131 70.1248C63.058 70.6348 63.0093 71.0963 63.0093 71.5213C63.0093 71.9464 63.0458 72.42 63.131 72.9179C63.204 73.428 63.3623 73.8894 63.5935 74.3266C63.8248 74.7638 64.1655 75.1281 64.6037 75.4196C65.0419 75.711 65.6261 75.8568 66.3442 75.8568C67.0622 75.8568 67.6464 75.711 68.0846 75.4196C68.5228 75.1281 68.8635 74.7638 69.107 74.3266C69.3504 73.8894 69.5086 73.4158 69.5938 72.9179C69.6668 72.4079 69.7155 71.9464 69.7155 71.5213C69.7155 70.9992 69.679 70.477 69.6181 69.9669C69.5451 69.4569 69.3991 68.9832 69.18 68.5703C68.9609 68.1574 68.6201 67.8174 68.1698 67.5624C67.7073 67.3195 67.0988 67.1859 66.3442 67.1859Z" fill="white"/>
<path d="M18.4026 71.5334C18.4026 70.5255 18.5 69.6389 18.6947 68.886C18.8894 68.1331 19.145 67.4773 19.4736 66.9187C19.8023 66.3601 20.1674 65.8986 20.5812 65.5343C20.995 65.1699 21.421 64.8663 21.847 64.6356C22.8572 64.0891 24.0134 63.7977 25.3157 63.7612C26.6058 63.7977 27.7499 64.0891 28.7601 64.6356C29.1861 64.8663 29.6121 65.1699 30.0259 65.5343C30.4397 65.8986 30.817 66.3601 31.1334 66.9187C31.4499 67.4773 31.7177 68.1331 31.9246 68.886C32.1315 69.6389 32.2288 70.5255 32.2288 71.5334C32.2288 72.5414 32.1315 73.4279 31.9246 74.1808C31.7177 74.9337 31.4621 75.5895 31.1334 76.136C30.817 76.6825 30.4397 77.1318 30.0259 77.484C29.6121 77.8483 29.1861 78.1398 28.7601 78.3705C27.7499 78.8927 26.5937 79.172 25.3157 79.1841C24.0134 79.1599 22.8572 78.8927 21.847 78.3705C21.421 78.1398 20.995 77.8362 20.5812 77.484C20.1674 77.1197 19.7901 76.6703 19.4736 76.136C19.1572 75.6017 18.8894 74.9459 18.6947 74.1808C18.5 73.4279 18.4026 72.5414 18.4026 71.5334ZM25.3279 67.1858C24.6098 67.1858 24.0256 67.3316 23.5874 67.623C23.1493 67.9145 22.8085 68.2788 22.5772 68.716C22.346 69.1532 22.1878 69.6268 22.1147 70.1247C22.0417 70.6348 21.993 71.0962 21.993 71.5213C21.993 71.9463 22.0295 72.4199 22.1147 72.9178C22.1878 73.4279 22.346 73.8894 22.5772 74.3265C22.8085 74.7637 23.1493 75.128 23.5874 75.4195C24.0256 75.711 24.6098 75.8567 25.3279 75.8567C26.046 75.8567 26.6302 75.711 27.0683 75.4195C27.5065 75.128 27.8473 74.7637 28.0785 74.3265C28.3098 73.8894 28.468 73.4157 28.541 72.9178C28.6141 72.4199 28.6627 71.9463 28.6627 71.5213C28.6627 71.0962 28.6262 70.6226 28.541 70.1247C28.468 69.6147 28.3098 69.1532 28.0785 68.716C27.8473 68.2788 27.5065 67.9145 27.0683 67.623C26.618 67.3316 26.046 67.1858 25.3279 67.1858Z" fill="white"/>
<path d="M50.7286 63.749C51.9579 63.749 52.9924 63.919 53.8566 64.2712C54.7085 64.6234 55.4145 65.1334 55.9743 65.8014C56.5342 66.4693 56.9358 67.2829 57.1914 68.2423C57.447 69.2017 57.5687 70.2947 57.5687 71.5212V78.164C57.5687 78.7469 57.5322 79.2813 57.4714 79.7792C57.3983 80.2771 57.3131 80.7386 57.1914 81.1636C57.021 81.8072 56.7289 82.3901 56.3273 82.9245C55.9256 83.4588 55.4145 83.9203 54.7937 84.3089C54.173 84.6975 53.4306 85.0011 52.5786 85.2076C51.7267 85.4262 50.7408 85.5233 49.6332 85.5233L45.7507 85.499V82.208H48.903C50.2296 82.208 51.2398 82.0744 51.9457 81.7951C52.6516 81.5279 53.1628 81.2 53.4793 80.8236C53.7957 80.4471 53.9905 80.0585 54.0391 79.6699C54.0878 79.2813 54.1122 78.9777 54.1122 78.7712V76.8525L54.7572 76.0024C54.4286 76.816 54.0026 77.4354 53.5036 77.8726C52.9924 78.2976 52.5056 78.6133 52.0188 78.8077C51.4589 79.0262 50.8747 79.1477 50.2661 79.1841C49.0612 79.1598 47.9902 78.8927 47.053 78.3705C46.6392 78.1397 46.2497 77.8361 45.8724 77.4839C45.4951 77.1196 45.1543 76.6703 44.85 76.136C44.5458 75.5895 44.3023 74.9458 44.1198 74.1808C43.9372 73.4278 43.8398 72.5413 43.8398 71.5334C43.8398 70.5254 43.9372 69.6389 44.132 68.886C44.3267 68.133 44.5823 67.4772 44.9109 66.9186C45.2395 66.36 45.6046 65.8985 46.0185 65.5342C46.4323 65.1699 46.8583 64.8663 47.2842 64.6355C48.2579 64.0891 49.4142 63.7976 50.7286 63.749ZM54.0878 71.5334C54.0878 71.0112 54.0513 70.489 53.9905 69.9789C53.9174 69.4689 53.7714 68.9953 53.5523 68.5824C53.3332 68.1695 52.9924 67.8294 52.5421 67.5744C52.0918 67.3194 51.4954 67.1979 50.7286 67.1979C50.0105 67.1979 49.4263 67.3437 48.9882 67.6351C48.55 67.9266 48.2092 68.2909 47.978 68.7281C47.7467 69.1653 47.5885 69.6389 47.5155 70.1368C47.4425 70.6468 47.3938 71.1083 47.3938 71.5334C47.3938 71.9584 47.4303 72.432 47.5155 72.9299C47.6007 73.4278 47.7467 73.9015 47.978 74.3386C48.2092 74.7758 48.55 75.1402 48.9882 75.4316C49.4263 75.7231 50.0105 75.8688 50.7286 75.8688C51.4467 75.8688 52.0309 75.7231 52.4691 75.4316C52.9072 75.1402 53.248 74.7758 53.4914 74.3386C53.7349 73.9015 53.8931 73.4278 53.9783 72.9299C54.0391 72.4199 54.0878 71.9584 54.0878 71.5334Z" fill="white"/>
<path d="M7.19306 72.7359H12.9256C12.5726 73.7074 12.0249 74.4725 11.2947 75.019C10.4914 75.614 9.49338 75.9176 8.32496 75.9176C7.5947 75.9176 6.91313 75.7719 6.31675 75.4926C5.72037 75.2133 5.20919 74.8125 4.7832 74.3025C4.35722 73.7924 4.01643 73.1852 3.78518 72.493C3.54176 71.8008 3.42005 71.0357 3.42005 70.2099C3.42005 69.3841 3.54176 68.6191 3.78518 67.9269C4.0286 67.2346 4.35722 66.6274 4.7832 66.1295C5.20919 65.6316 5.72037 65.2309 6.31675 64.9516C6.91313 64.6722 7.5947 64.5265 8.32496 64.5265C9.2743 64.5265 10.1263 64.7573 10.8565 65.2187C11.5868 65.6802 12.1467 66.3238 12.5361 67.1375L12.597 67.2589H16.3213L16.2361 66.9553C15.9684 66.0445 15.5789 65.2066 15.0799 64.4658C14.5809 63.725 13.9845 63.0814 13.3151 62.5592C12.6335 62.037 11.8667 61.6119 11.0391 61.3205C10.1993 61.029 9.29864 60.8833 8.34931 60.8833C7.12003 60.8833 5.98813 61.114 4.97794 61.5877C3.96775 62.0491 3.07926 62.7049 2.33683 63.5307C1.5944 64.3565 1.01019 65.3523 0.60855 66.4939C0.206907 67.6354 0 68.8741 0 70.2099C0 71.5579 0.206907 72.8088 0.60855 73.9382C1.01019 75.0676 1.5944 76.0634 2.33683 76.8892C3.07926 77.715 3.96775 78.3707 4.97794 78.8322C5.98813 79.2937 7.12003 79.5366 8.34931 79.5366C9.49338 79.5366 10.5644 79.3301 11.5381 78.9051C12.5118 78.4922 13.3759 77.8971 14.1062 77.1685C14.8364 76.4277 15.4328 75.529 15.871 74.4968C16.3091 73.4645 16.5769 72.3351 16.6743 71.0965V69.2384H7.20523V72.7359H7.19306Z" fill="white"/>
<path d="M119.252 60.2881H122.306V60.9196H121.138V63.7491H120.42V60.9196H119.252V60.2881Z" fill="white"/>
<path d="M123.378 61.1988V63.7491H122.708V60.2759H123.633L124.582 62.1339L125.532 60.2759H126.457V63.7491H125.775V61.1988L124.57 63.4941L123.378 61.1988Z" fill="white"/>
<path d="M85.2335 66.2022V59.2437H88.7145V71.5091C88.7145 72.5171 88.6171 73.4036 88.4224 74.1565C88.2276 74.9095 87.972 75.5652 87.6434 76.1239C87.327 76.6825 86.9618 77.1318 86.548 77.4961C86.1342 77.8605 85.7204 78.1519 85.2944 78.3826C84.2842 78.9048 83.1401 79.1842 81.8743 79.1963C80.572 79.172 79.4158 78.9048 78.4056 78.3826C77.9796 78.1519 77.5536 77.8483 77.1398 77.4961C76.726 77.1318 76.3487 76.6825 76.0322 76.1481C75.7158 75.6017 75.448 74.958 75.2533 74.193C75.0586 73.44 74.9612 72.5535 74.9612 71.5456C74.9612 70.5376 75.0585 69.6511 75.2411 68.8982C75.4237 68.1452 75.6671 67.4895 75.9714 66.9308C76.2757 66.3722 76.6164 65.9107 76.9937 65.5464C77.3711 65.1821 77.7727 64.8785 78.1743 64.6477C79.1115 64.1013 80.1826 63.8098 81.3875 63.7734C81.996 63.8341 82.5803 63.9798 83.1401 64.2106C83.627 64.4292 84.126 64.7449 84.625 65.1821C85.1362 65.6193 85.55 66.2508 85.8786 67.0644L85.2335 66.2022ZM81.8743 75.8688C82.5924 75.8688 83.1766 75.7231 83.6148 75.4317C84.0529 75.1402 84.3937 74.7759 84.6372 74.3387C84.8806 73.9015 85.0388 73.4279 85.124 72.93C85.197 72.4199 85.2457 71.9585 85.2457 71.5334C85.2457 71.1084 85.2092 70.6348 85.124 70.1368C85.051 69.6268 84.8806 69.1653 84.6372 68.7281C84.3937 68.291 84.0529 67.9266 83.6148 67.6352C83.1766 67.3437 82.5924 67.198 81.8743 67.198C81.1562 67.198 80.572 67.3437 80.1339 67.6352C79.6957 67.9266 79.3549 68.291 79.1237 68.7281C78.8924 69.1653 78.7342 69.6389 78.6612 70.1368C78.5882 70.6469 78.5395 71.1084 78.5395 71.5334C78.5395 71.9585 78.576 72.4321 78.6612 72.93C78.7464 73.4279 78.8924 73.9015 79.1237 74.3387C79.3549 74.7759 79.6957 75.1402 80.1339 75.4317C80.572 75.7231 81.1562 75.8688 81.8743 75.8688Z" fill="white"/>
<path d="M57.5444 23.2003C62.4859 14.3473 79.9269 35.5021 83.7729 40.5905C84.1989 41.1491 83.919 41.9749 83.2374 42.1692C62.072 47.8405 52.5056 32.2597 57.5444 23.2003Z" fill="white"/>
<path d="M42.5498 13.1936C45.6047 14.6509 46.7366 15.4039 44.8501 23.3703C41.2353 39.194 57.7757 45.3753 59.4553 45.9582C59.5405 45.9825 59.5892 46.0675 59.5892 46.1525V54.6533C59.5892 54.8355 59.8083 54.9205 59.9422 54.7991C62.5346 52.4917 62.705 47.2941 62.7172 46.2011C62.7172 46.0918 62.8145 45.9947 62.9241 45.9947H64.0681C64.1777 45.9947 64.2751 46.0918 64.2751 46.2011V54.6533C64.2751 54.8355 64.4941 54.9205 64.628 54.8112C66.9283 52.771 67.5004 46.9055 67.5977 45.8368C67.6099 45.7396 67.6829 45.6546 67.7803 45.6546L71.2247 45.351C71.4681 45.3267 71.4803 44.9867 71.249 44.9381C66.0764 43.9666 50.8018 39.7283 55.1103 24.1233C57.2767 16.2904 55.1468 12.5986 52.0675 11.2142C51.0452 7.2795 48.5014 -0.395529 44.3268 0.916026C41.3814 1.85112 47.3208 5.57933 51.033 10.8498C47.5886 9.87832 43.4748 11.2627 42.562 12.8293C42.4768 12.975 42.3916 13.1208 42.5498 13.1936ZM47.4182 13.4122C47.4182 12.9386 47.8077 12.55 48.2824 12.55C48.757 12.55 49.1465 12.9386 49.1465 13.4122C49.1465 13.8858 48.757 14.2745 48.2824 14.2745C47.7955 14.2745 47.4182 13.898 47.4182 13.4122Z" fill="white"/>
</svg>
