<svg width="169" height="36" viewBox="0 0 169 36" fill="none" xmlns="http://www.w3.org/2000/svg">
<path d="M17.1433 17.1062H0V0H17.1433V17.1062Z" fill="#B00F0A"/>
<path d="M36.0714 17.1062H18.9285V0H36.0714V17.1062Z" fill="#D6140E"/>
<path d="M17.1428 36H0V18.894H17.1428V36Z" fill="#D6140E"/>
<path d="M36.0714 36H18.9285V18.894H36.0714V36Z" fill="#B00F0A"/>
<path d="M169 16.8955V13.9299H165.309V9.31964L165.185 9.35781L161.719 10.4161L161.65 10.4369V13.9301H156.179V11.9841C156.179 11.0779 156.382 10.3845 156.782 9.92204C157.179 9.46514 157.748 9.23286 158.473 9.23286C158.994 9.23286 159.534 9.35536 160.077 9.59694L160.213 9.65762V6.53451L160.149 6.51102C159.642 6.3293 158.953 6.23779 158.099 6.23779C157.023 6.23779 156.044 6.47155 155.191 6.93481C154.338 7.39872 153.667 8.061 153.196 8.90303C152.728 9.74408 152.49 10.7155 152.49 11.7904V13.9299H149.92V16.8955H152.49V29.3887H156.179V16.8955H161.65V24.8347C161.65 28.1045 163.196 29.7615 166.244 29.7615C166.745 29.7615 167.272 29.7029 167.811 29.5882C168.359 29.4704 168.732 29.3528 168.951 29.2272L169 29.1985V26.2056L168.85 26.3046C168.65 26.4377 168.4 26.5465 168.108 26.6274C167.814 26.7098 167.569 26.7511 167.379 26.7511C166.665 26.7511 166.137 26.5591 165.809 26.1801C165.478 25.7978 165.309 25.1292 165.309 24.1938V16.8955H169ZM141.681 26.7515C140.342 26.7515 139.287 26.3085 138.543 25.4358C137.794 24.5587 137.415 23.3082 137.415 21.7194C137.415 20.0802 137.794 18.7973 138.543 17.9047C139.288 17.018 140.333 16.5679 141.651 16.5679C142.931 16.5679 143.949 16.9977 144.678 17.8461C145.411 18.6989 145.783 19.9716 145.783 21.6299C145.783 23.3086 145.433 24.598 144.744 25.4606C144.059 26.3167 143.028 26.7515 141.681 26.7515ZM141.845 13.5575C139.291 13.5575 137.262 14.3044 135.815 15.7776C134.369 17.2509 133.636 19.2897 133.636 21.838C133.636 24.2584 134.352 26.2053 135.763 27.6236C137.175 29.0424 139.095 29.7611 141.472 29.7611C143.948 29.7611 145.937 29.0038 147.383 27.5102C148.829 26.0183 149.561 23.9987 149.561 21.51C149.561 19.0518 148.874 17.0904 147.518 15.6815C146.161 14.272 144.252 13.5575 141.845 13.5575ZM127.688 13.5575C125.95 13.5575 124.513 14.001 123.415 14.8755C122.31 15.7552 121.75 16.909 121.75 18.3052C121.75 19.0309 121.871 19.6755 122.109 20.2223C122.348 20.7709 122.719 21.2539 123.211 21.6592C123.7 22.0613 124.454 22.4825 125.454 22.911C126.294 23.256 126.92 23.5479 127.319 23.7779C127.708 24.0033 127.984 24.2299 128.14 24.4506C128.291 24.6665 128.368 24.9621 128.368 25.3269C128.368 26.3654 127.589 26.8708 125.985 26.8708C125.39 26.8708 124.711 26.7468 123.968 26.5025C123.23 26.2618 122.533 25.9094 121.903 25.4575L121.749 25.3479V28.892L121.806 28.9181C122.328 29.1586 122.986 29.3613 123.761 29.5209C124.536 29.6805 125.239 29.7618 125.85 29.7618C127.736 29.7618 129.254 29.3161 130.362 28.4364C131.478 27.5507 132.043 26.3697 132.043 24.9252C132.043 23.8832 131.738 22.9897 131.139 22.269C130.543 21.5542 129.51 20.898 128.068 20.3179C126.919 19.8579 126.184 19.476 125.88 19.1829C125.587 18.8997 125.439 18.4993 125.439 17.9921C125.439 17.5426 125.622 17.1824 125.999 16.8907C126.378 16.5976 126.906 16.4485 127.569 16.4485C128.183 16.4485 128.812 16.5454 129.438 16.7353C130.063 16.9251 130.612 17.1795 131.07 17.4905L131.221 17.5933V14.2314L131.163 14.2066C130.74 14.0257 130.182 13.8709 129.505 13.7453C128.831 13.6205 128.22 13.5575 127.688 13.5575ZM112.132 26.7515C110.794 26.7515 109.738 26.3085 108.994 25.4358C108.245 24.5587 107.867 23.3086 107.867 21.7194C107.867 20.0802 108.246 18.7973 108.995 17.9047C109.738 17.018 110.784 16.5679 112.103 16.5679C113.382 16.5679 114.4 16.9977 115.129 17.8461C115.863 18.6989 116.234 19.9716 116.234 21.6299C116.234 23.3086 115.884 24.598 115.195 25.4606C114.509 26.3167 113.48 26.7515 112.132 26.7515ZM112.297 13.5575C109.742 13.5575 107.712 14.3044 106.266 15.7776C104.821 17.2509 104.087 19.2897 104.087 21.838C104.087 24.2594 104.803 26.2053 106.215 27.6236C107.626 29.0424 109.547 29.7611 111.923 29.7611C114.399 29.7611 116.388 29.0038 117.834 27.5102C119.28 26.0183 120.013 23.9987 120.013 21.51C120.013 19.0518 119.325 17.0904 117.969 15.6815C116.611 14.272 114.703 13.5575 112.297 13.5575ZM98.4872 16.6071V13.9299H94.843V29.3884H98.4872V21.4808C98.4872 20.1362 98.7927 19.0315 99.3956 18.1972C99.9908 17.3728 100.784 16.955 101.752 16.955C102.081 16.955 102.449 17.009 102.848 17.1158C103.243 17.222 103.529 17.3374 103.698 17.4587L103.851 17.5695V13.9035L103.792 13.8782C103.453 13.7343 102.973 13.6618 102.365 13.6618C101.449 13.6618 100.63 13.9554 99.9279 14.5335C99.3118 15.0416 98.8664 15.7383 98.5259 16.6071H98.4872ZM88.3169 13.5575C86.6451 13.5575 85.1539 13.9152 83.8855 14.6204C82.6145 15.3272 81.6315 16.3363 80.9627 17.6194C80.2969 18.8994 79.9588 20.3946 79.9588 22.062C79.9588 23.5226 80.2866 24.8629 80.9344 26.0443C81.5826 27.2275 82.5 28.1532 83.6614 28.7953C84.821 29.4365 86.1614 29.7616 87.6454 29.7616C89.3772 29.7616 90.8559 29.4161 92.0414 28.7348L92.0893 28.7074V25.376L91.9361 25.4875C91.3991 25.8779 90.799 26.1894 90.1533 26.4139C89.5092 26.6382 88.922 26.7515 88.407 26.7515C86.9771 26.7515 85.8292 26.3051 84.996 25.4249C84.1609 24.5435 83.7375 23.3059 83.7375 21.7486C83.7375 20.1815 84.1791 18.9121 85.0492 17.9755C85.9168 17.0416 87.0669 16.5679 88.4672 16.5679C89.665 16.5679 90.8322 16.9726 91.9364 17.7719L92.0893 17.8827V14.3725L92.0399 14.3447C91.6244 14.1126 91.0576 13.9209 90.354 13.7756C89.6533 13.6306 88.9681 13.5575 88.3169 13.5575ZM77.449 13.9301H73.8048V29.3884H77.449V13.9301ZM75.6642 7.34473C75.0644 7.34473 74.5413 7.54847 74.1115 7.95219C73.6799 8.35706 73.461 8.86681 73.461 9.4684C73.461 10.0605 73.6773 10.561 74.1048 10.9551C74.5295 11.348 75.0543 11.5472 75.6643 11.5472C76.2743 11.5472 76.801 11.348 77.2308 10.9557C77.6633 10.561 77.8827 10.0607 77.8827 9.4684C77.8827 8.88786 77.6692 8.38332 77.2486 7.96851C76.8283 7.5545 76.295 7.34473 75.6642 7.34473ZM66.5717 12.7895V29.3884H70.2908V7.81795H65.1434L58.6009 23.8398L52.2517 7.81795H46.8948V29.3882H50.3897V12.7879H50.5097L57.2143 29.3884H59.8518L66.4517 12.7895H66.5717Z" fill="#D6140E"/>
</svg>
