<svg width="86" height="36" viewBox="0 0 86 36" fill="none" xmlns="http://www.w3.org/2000/svg">
<path fill-rule="evenodd" clip-rule="evenodd" d="M86.0001 18.6009C86.0001 12.4487 83.0378 7.59424 77.3762 7.59424C71.6906 7.59424 68.2506 12.4487 68.2506 18.5528C68.2506 25.7865 72.3117 29.4393 78.1406 29.4393C80.9834 29.4393 83.1334 28.7905 84.7578 27.8772V23.0708C83.1334 23.8879 81.2701 24.3926 78.9051 24.3926C76.5878 24.3926 74.5334 23.5755 74.2706 20.7397H85.9523C85.9523 20.4273 86.0001 19.1777 86.0001 18.6009ZM74.1989 16.3179C74.1989 13.6022 75.8473 12.4727 77.3523 12.4727C78.8095 12.4727 80.3623 13.6022 80.3623 16.3179H74.1989Z" fill="#B00F0A"/>
<path fill-rule="evenodd" clip-rule="evenodd" d="M59.0295 7.59424C56.6883 7.59424 55.1833 8.69971 54.3472 9.46873L54.0367 7.97875H48.7811V36L54.7533 34.7264L54.7772 27.9253C55.6372 28.5501 56.9033 29.4393 59.0056 29.4393C63.2817 29.4393 67.1756 25.9787 67.1756 18.3606C67.1517 11.3913 63.21 7.59424 59.0295 7.59424ZM57.5961 24.1523C56.1867 24.1523 55.3506 23.6476 54.7772 23.0228L54.7533 14.1069C55.3745 13.41 56.2345 12.9293 57.5961 12.9293C59.77 12.9293 61.275 15.3806 61.275 18.5288C61.275 21.7491 59.7939 24.1523 57.5961 24.1523Z" fill="#B00F0A"/>
<path fill-rule="evenodd" clip-rule="evenodd" d="M40.5634 6.17622L46.5595 4.87849V0L40.5634 1.2737V6.17622Z" fill="#B00F0A"/>
<path d="M46.5595 8.00244H40.5634V29.0304H46.5595V8.00244Z" fill="#B00F0A"/>
<path fill-rule="evenodd" clip-rule="evenodd" d="M34.1372 9.78068L33.755 8.00231H28.595V29.0303H34.5672V14.7793C35.9766 12.9289 38.3655 13.2653 39.1061 13.5297V8.00231C38.3416 7.71393 35.5466 7.18523 34.1372 9.78068Z" fill="#B00F0A"/>
<path fill-rule="evenodd" clip-rule="evenodd" d="M22.1927 2.78809L16.3639 4.03775L16.34 23.2874C16.34 26.8441 18.9916 29.4636 22.5272 29.4636C24.4861 29.4636 25.9194 29.1031 26.7077 28.6705V23.792C25.9433 24.1045 22.1689 25.2099 22.1689 21.6532V13.1218H26.7077V8.00303H22.1689L22.1927 2.78809Z" fill="#B00F0A"/>
<path fill-rule="evenodd" clip-rule="evenodd" d="M6.04389 14.1069C6.04389 13.1697 6.80833 12.8092 8.07444 12.8092C9.89 12.8092 12.1833 13.3619 13.9989 14.3472V8.69971C12.0161 7.90665 10.0572 7.59424 8.07444 7.59424C3.225 7.59424 0 10.1416 0 14.3953C0 21.0281 9.07778 19.9707 9.07778 22.8305C9.07778 23.936 8.12222 24.2965 6.78444 24.2965C4.80167 24.2965 2.26944 23.4794 0.262777 22.3739V28.0935C2.48444 29.0548 4.73 29.4634 6.78444 29.4634C11.7533 29.4634 15.1694 26.9881 15.1694 22.6863C15.1456 15.5248 6.04389 16.7985 6.04389 14.1069Z" fill="#B00F0A"/>
</svg>
