<svg width="104" height="36" viewBox="0 0 104 36" fill="none" xmlns="http://www.w3.org/2000/svg">
<path d="M5.98347 25.7107C6.42296 26.8737 7.03143 27.8681 7.80899 28.6939C8.58654 29.5198 9.50772 30.1518 10.5725 30.59C11.6374 31.0282 12.7952 31.2473 14.046 31.2473C15.2631 31.2473 16.4039 31.0197 17.4688 30.5646C18.5338 30.1095 19.4633 29.4691 20.2577 28.6433C21.0521 27.8174 21.6691 26.8315 22.1086 25.6855C22.5481 24.5394 22.7678 23.2586 22.7678 21.8428V0H28.0921V35.3933H22.8185V32.1067C21.6353 33.3538 20.2408 34.3145 18.6351 34.9888C17.0292 35.6629 15.2969 36 13.4376 36C11.5444 36 9.77812 35.6713 8.13852 35.014C6.49904 34.3567 5.07913 33.4214 3.87914 32.2079C2.67914 30.9943 1.7325 29.5367 1.03955 27.8343C0.346478 26.1321 0 24.2361 0 22.1461V0H5.32429V21.8428C5.32429 23.2586 5.54398 24.5478 5.98347 25.7107Z" fill="#B00F0A"/>
<path d="M37.2698 0V12.8932C38.4529 11.7135 39.8221 10.7782 41.3771 10.0871C42.9321 9.39602 44.6224 9.05054 46.4478 9.05054C48.341 9.05054 50.1156 9.40442 51.7721 10.1123C53.4286 10.8201 54.8652 11.7808 56.0822 12.9944C57.2993 14.2079 58.2628 15.6404 58.9727 17.2921C59.6826 18.9439 60.0374 20.6967 60.0374 22.5506C60.0374 24.4044 59.6826 26.1489 58.9727 27.7836C58.2628 29.4185 57.2993 30.8427 56.0822 32.0561C54.8652 33.2696 53.4286 34.2303 51.7721 34.9382C50.1156 35.646 48.3409 35.9999 46.4478 35.9999C44.6223 35.9999 42.9237 35.6544 41.3518 34.9633C39.7798 34.2724 38.4022 33.337 37.219 32.1572V35.3932H32.1483V0H37.2698ZM37.8529 26.0393C38.3092 27.1181 38.9431 28.0619 39.7545 28.8709C40.5658 29.6799 41.5123 30.3204 42.594 30.7923C43.6759 31.2642 44.8421 31.5001 46.0929 31.5001C47.31 31.5001 48.4593 31.2642 49.541 30.7923C50.6227 30.3204 51.5607 29.68 52.3554 28.8709C53.1497 28.062 53.7836 27.1181 54.2568 26.0393C54.7301 24.9607 54.9667 23.7978 54.9667 22.5506C54.9667 21.3034 54.7301 20.132 54.2568 19.0365C53.7836 17.941 53.1497 16.9888 52.3554 16.1798C51.5609 15.3709 50.6228 14.7388 49.541 14.2838C48.4592 13.8288 47.3099 13.6011 46.0929 13.6011C44.876 13.6011 43.7266 13.8287 42.6449 14.2838C41.5631 14.7389 40.6166 15.3709 39.8052 16.1798C38.994 16.9888 38.3516 17.941 37.8783 19.0365C37.4051 20.132 37.1684 21.3034 37.1684 22.5506C37.1683 23.7978 37.3965 24.9607 37.8529 26.0393Z" fill="#B00F0A"/>
<path d="M62.9272 17.343C63.6032 15.725 64.533 14.3009 65.716 13.0706C66.8991 11.8402 68.3022 10.8711 69.9248 10.1633C71.5475 9.45543 73.3053 9.10156 75.1984 9.10156C77.0577 9.10156 78.7818 9.43865 80.3707 10.1127C81.9594 10.7869 83.3285 11.7223 84.4779 12.919C85.6273 14.1155 86.5232 15.5313 87.1654 17.1661C87.8077 18.801 88.1288 20.5791 88.1288 22.5005V24.169H67.0852C67.2543 25.214 67.5924 26.1831 68.0994 27.0762C68.6066 27.9695 69.2403 28.7448 70.0009 29.4021C70.7615 30.0595 71.6236 30.5735 72.587 30.9442C73.5505 31.315 74.573 31.5005 75.6548 31.5005C78.7312 31.5005 81.2159 30.2363 83.1089 27.7082L86.8106 30.4385C85.526 32.1576 83.9372 33.506 82.0441 34.4835C80.151 35.461 78.0213 35.9498 75.655 35.9498C73.728 35.9498 71.928 35.6126 70.2546 34.9385C68.5812 34.2644 67.1277 33.3205 65.8938 32.107C64.6599 30.8934 63.688 29.4693 62.9781 27.8345C62.2682 26.1998 61.9132 24.4216 61.9132 22.5003C61.913 20.6801 62.2512 18.961 62.9272 17.343ZM70.0516 15.3457C68.6149 16.5424 67.6599 18.1351 67.1867 20.1239H82.9568C82.5173 18.1351 81.5792 16.5424 80.1424 15.3457C78.7057 14.1492 77.0239 13.5509 75.0971 13.5509C73.1701 13.5509 71.4884 14.1492 70.0516 15.3457Z" fill="#B00F0A"/>
<path d="M97.7124 15.9268C96.6306 17.1066 96.0897 18.7077 96.0897 20.7302V35.3933H90.9681V9.60669H96.0389V12.7921C96.6812 11.7471 97.5179 10.9213 98.549 10.3145C99.58 9.70771 100.805 9.4043 102.225 9.4043H104V14.1571H101.87C100.18 14.1572 98.7941 14.7471 97.7124 15.9268Z" fill="#B00F0A"/>
</svg>
