<svg width="180" height="36" viewBox="0 0 180 36" fill="none" xmlns="http://www.w3.org/2000/svg">
<path d="M62.5808 26.2849V30.4274H45.4192V26.2849H51.5836V9.71507H45.4192V5.5726H62.5808V9.71507H56.4164V26.2849H62.5808ZM33.4356 5.5726H28.7014L25.2986 25.2493H25.2493L21.3041 7.00274C21.0575 5.76986 20.663 5.47397 19.4795 5.47397H16.8658C15.7315 5.47397 15.2877 5.76986 15.0411 7.00274L11.0959 25.2493H10.9973L7.64384 5.5726H2.56438L7.44658 29.1945C7.64384 30.2301 8.03836 30.4767 9.1726 30.4767H12.526C13.6603 30.4767 14.0548 30.2301 14.2521 29.1452L17.9507 12.0329H18.0493L21.7479 29.1452C21.9945 30.2301 22.3397 30.4767 23.474 30.4767H26.7781C27.9616 30.4767 28.3069 30.2301 28.5041 29.1945L33.4356 5.5726ZM36 36H0V0H36V36ZM95.3753 24.0658C95.3934 26.1934 95.5417 28.3179 95.8192 30.4274H100.751C100.603 29.0959 100.455 26.8767 100.356 23.7205C100.258 20.5644 99.074 19.4795 96.5096 18.9863V18.8877C99.3699 18.4438 100.603 17.063 100.603 12.674C100.603 9.02466 100.011 7.69315 99.0247 6.70685C98.0384 5.72055 97.0027 5.62192 95.0795 5.62192H79.9397V30.4274H85.0685V20.7616H92.1699C93.6493 20.7616 94.2411 20.8603 94.6356 21.2548C95.0301 21.6493 95.326 22.0932 95.3753 24.0658ZM85.0685 16.7178V9.8137H93.2055C94.3397 9.8137 94.6849 9.91233 94.8822 10.1096C95.0795 10.3068 95.5726 10.9973 95.5726 13.1671C95.5726 15.337 95.2274 16.0274 94.8329 16.3726C94.4384 16.7178 94.2904 16.7178 93.1562 16.7178H85.0685ZM108 36H72V0H108V36ZM151.94 5.5726V30.4274H164.17C167.671 30.4274 169.595 29.9342 171.123 28.6027C172.652 27.2712 173.737 24.1644 173.737 18.0493C173.737 11.9342 172.899 9.02466 171.123 7.49589C169.348 5.96712 167.721 5.67123 164.17 5.67123H151.94V5.5726ZM168.658 18C168.658 23.326 168.214 24.7069 167.277 25.4466C166.34 26.1863 165.649 26.1863 163.825 26.1863H157.068V9.8137H163.825C165.699 9.8137 166.488 9.91233 167.277 10.5534C168.066 11.1945 168.658 12.674 168.658 18.0493V18ZM180 36H144V0H180V36ZM114.608 9.71507V5.5726H135.764V13.5616H131.326V9.71507H122.745V15.6329H129.551V19.6274H122.745V26.2849H131.523V21.9452H136.011V30.4274H114.608V26.2849H117.962V9.71507H114.608Z" fill="#B00F0A"/>
</svg>
